<svg id="Layer_1" data-name="Layer 1" xmlns="http://www.w3.org/2000/svg" xmlns:xlink="http://www.w3.org/1999/xlink" viewBox="0 0 1280 1008.26"><defs><style>.cls-1{fill:none;}.cls-2{clip-path:url(#clip-path);}.cls-3{fill:blue;}.cls-4{fill:#ed3237;}</style><clipPath id="clip-path" transform="translate(128 -7.87)"><rect class="cls-1" x="-128" width="1280" height="1024"/></clipPath></defs><title>ansora_logo</title><g class="cls-2"><path class="cls-3" d="M-16.25,600.11,125.36,550Q129,431.21,256.64,423.84q49.42,99.57,142.34,90c92.93-9.59,125.38-94.4,99.57-156.36S379.07,285.92,354.73,339s17.7,73,39.09,70.8q15.49-56.79,41.3-41.3c25.81,15.49,17,78.18-31.71,79.65s-105.47-31-95.14-115.06,111.37-174.06,244.86-66.38q47.94-60.48,92.19-64.9,27.45,394.83-348.85,397.45T-16.25,600.11Z" transform="translate(128 -7.87)"/><path class="cls-3" d="M670.39,198.15q85.55,291.32-104.73,404.17h486L941.8,562.49q35.88-99.26-9.59-149c-47.2-51.63-181.43-95.14-124.64,30.24q-39.83,15.49-66.38-2.21C714.64,423.84,680,330.91,795,300.67Q784.71,207,670.39,198.15Z" transform="translate(128 -7.87)"/><path class="cls-4" d="M696.21,120q-2.21-61.21-42-112.1Q607.7,58,609.18,118.5l-24.34,19.91v48.68l38.35-28.76q27.29,19.91,59-.74l39.09,30.24V139.89ZM653,106.15a18,18,0,1,1,18-18A18,18,0,0,1,653,106.15Z" transform="translate(128 -7.87)"/><path class="cls-3" d="M127.82,383.52q-6.15-3.93-3.93-11.55c2.21-7.62,13.08-9.45,22.13-5.16,10.23,4.86,24.83,23.6,13.77,43.27s-42,20.16-56.79,11.31S74.22,387,84.05,356.48s47.45-46.22,70.8-39.09,49.42,30,56.05,51.38,2,26.31,10.08,32.7,32.21,2,48.43-13.77,36.63-49.17,11.55-80.64-59.49-32.94-67.12-24.58-4.18,17.45-1,19.67,14.51,10.08,4.67,16-27.29,6.88-41.79-8.85-11.06-56.55,32.94-69.08q-3.44-27.53-34.91-42.53c-31.47-15-71.79,4.18-83.09,32.7q-41.3-42-85.8-22.13c-44.5,19.91-42,68.84-32.45,85.55s40.32,28.27,53.1,15.73,13.27-26.8.24-30.73-12.78,13-13.52,16.47S7.84,306.33-3.22,298-23.62,265.76-4.45,250s57.53-11.56,70.06,20.4,0,71.79-44.74,79.9S-54.85,325-60.75,306.82Q-125,317.63-125.4,367c-.37,49.41,35,63.43,53.1,67.12q18.07,3.69,58.63-16.59,44,52.73,87.89,52.73c43.88,0,91.95-22.86,102.52-55.81,10.9-34-6.94-49.89-20.36-58.33-12.41-7.81-40.51-4.23-43.28,15.35S121.25,396,124,396.27s7.19,1.52,9.54-4.15Q135.91,386.46,127.82,383.52Z" transform="translate(128 -7.87)"/><path class="cls-3" d="M942,330q4.75-3,3-8.86c-1.71-5.84-10.12-7.24-17.11-4-7.91,3.72-19.2,18.09-10.64,33.16s32.5,15.45,43.91,8.67,22.24-26.38,14.64-49.74-36.69-35.42-54.74-30-38.21,23-43.34,39.38-1.52,20.16-7.79,25.06-24.9,1.51-37.45-10.55-28.32-37.68-8.93-61.8,46-25.25,51.89-18.84,3.23,13.38.76,15.07-11.21,7.73-3.61,12.25,21.1,5.28,32.31-6.78,8.55-43.34-25.47-52.95q2.66-21.1,27-32.6c24.33-11.49,55.5,3.2,64.25,25.06q31.93-32.22,66.34-17c34.4,15.26,32.5,52.76,25.09,65.57s-31.17,21.67-41.06,12.06-10.26-20.54-.19-23.55,9.88,10,10.45,12.62,3.42,8.48,12,2.07,15.78-24.68,1-36.74-44.48-8.86-54.17,15.64,0,55,34.59,61.24,58.54-19.41,63.11-33.35q49.7,8.29,50,46.16c.29,37.87-27.09,48.61-41.06,51.44q-14,2.83-45.33-12.72-34,40.42-68,40.42c-33.93,0-71.09-17.52-79.26-42.77-8.42-26,5.37-38.24,15.74-44.7,9.59-6,31.32-3.24,33.47,11.76s-6.31,18.76-8.45,19-5.56,1.17-7.38-3.18Q935.7,332.29,942,330Z" transform="translate(128 -7.87)"/><path class="cls-3" d="M867.85,1014.78H854.16V939H883q10.87,0,15.8,2h0a16.1,16.1,0,0,1,7.89,7.26h0a23.76,23.76,0,0,1,3,11.94h0q0,8.53-4.49,14.08h0q-4.49,5.56-13.42,7h0a32.7,32.7,0,0,1,7.33,6.36h0a86.92,86.92,0,0,1,7.79,12.3h0l8.28,14.78H898.76l-9.9-16.49h0a107.33,107.33,0,0,0-7.22-11.14h0a10.53,10.53,0,0,0-4.12-3.15h0a20.35,20.35,0,0,0-6.89-.85h-2.78Zm0-62.94v19.22H878q9.85,0,12.31-.93h0a7.52,7.52,0,0,0,3.84-3.2h0a10.74,10.74,0,0,0,1.39-5.68h0a9.78,9.78,0,0,0-1.83-6.18h0a8.14,8.14,0,0,0-5.16-3h0q-1.67-.26-10-.26H867.85ZM973.68,939l27.16,75.76h-14.9L980,997.58H952.91l-5.6,17.21H932.79L959.2,939Zm-16.56,45.78h18.51l-9.35-28.11Zm91.72,30H1035.2V982.9L1010.35,939h16.05l16,30L1058,939h15.78l-24.93,44Zm76-75.76,27.16,75.76h-14.9l-5.92-17.21h-27.11l-5.6,17.21H1084L1110.37,939Zm-16.56,45.78h18.5l-9.34-28.11Z" transform="translate(128 -7.87)"/><path class="cls-3" d="M476.92,990.13h0l13.32-1.45h0q1.2,7.49,4.88,11h0q3.68,3.51,9.92,3.51h0q6.62,0,10-3.13h0a9.7,9.7,0,0,0,3.35-7.31h0A7.42,7.42,0,0,0,517,988.2h0a11.15,11.15,0,0,0-4.93-3.28h0q-2.41-.93-11-3.31h0q-11-3-15.45-7.49h0a20.76,20.76,0,0,1-6.24-15.24h0A21.14,21.14,0,0,1,482.3,948h0a19,19,0,0,1,8.47-7.68h0a30.81,30.81,0,0,1,13.35-2.63h0q12.77,0,19.22,6.25h0q6.45,6.25,6.78,16.69h0l-13.69.67h0q-.88-5.84-3.77-8.4h0q-2.89-2.56-8.67-2.56h0q-6,0-9.34,2.74h0a5.74,5.74,0,0,0-2.17,4.7h0a6.09,6.09,0,0,0,2,4.6h0q2.59,2.43,12.58,5.06h0q10,2.63,14.78,5.45h0a20,20,0,0,1,7.49,7.7h0a24.61,24.61,0,0,1,2.71,12.07h0a24.24,24.24,0,0,1-3.24,12.2h0a20.08,20.08,0,0,1-9.16,8.45h0q-5.92,2.76-14.76,2.76h0q-12.86,0-19.75-6.64h0Q478.26,1002.85,476.92,990.13Zm79.71-12.76h0q0-11.58,3.1-19.43h0A36.1,36.1,0,0,1,566,947.55h0a26.57,26.57,0,0,1,8.77-6.82h0a33.82,33.82,0,0,1,14.62-3h0q15,0,24,10.39h0q9,10.39,9,28.89h0q0,18.35-8.93,28.71h0q-8.93,10.36-23.87,10.36h0q-15.13,0-24.05-10.31h0Q556.63,995.46,556.63,977.37Zm14.11-.52h0q0,12.87,5.32,19.51h0a16.58,16.58,0,0,0,13.51,6.64h0A16.44,16.44,0,0,0,603,996.41h0q5.25-6.59,5.25-19.77h0q0-13-5.11-19.43h0a16.5,16.5,0,0,0-13.58-6.41h0a16.61,16.61,0,0,0-13.65,6.49h0Q570.74,963.78,570.74,976.85Zm126.58,37.93H649.57V939.65h13.69V1002h34ZM716,977.37h0q0-11.58,3.1-19.43h0a36.1,36.1,0,0,1,6.31-10.39h0a26.57,26.57,0,0,1,8.77-6.82h0a33.82,33.82,0,0,1,14.62-3h0q15,0,24,10.39h0q9,10.39,9,28.89h0q0,18.35-8.93,28.71h0q-8.93,10.36-23.87,10.36h0q-15.13,0-24.05-10.31h0Q716,995.46,716,977.37Zm14.11-.52h0q0,12.87,5.32,19.51h0a16.58,16.58,0,0,0,13.51,6.64h0a16.44,16.44,0,0,0,13.44-6.59h0q5.25-6.59,5.25-19.77h0q0-13-5.11-19.43h0a16.5,16.5,0,0,0-13.58-6.41h0a16.62,16.62,0,0,0-13.65,6.49h0Q730.09,963.78,730.09,976.85Z" transform="translate(128 -7.87)"/><path class="cls-3" d="M-68.72,939l27.15,75.76h-14.9l-5.92-17.21H-89.49l-5.6,17.21h-14.53L-83.2,939Zm-16.56,45.78h18.51l-9.35-28.11Zm79,28.68H-19V937.73H-5.66L22.1,988.33V937.73H34.82v75.76H21.08l-27.34-49.4Zm96.77,1.29H76.82V939H90.51Zm47.74,0H125.53V939H146l12.31,51.68L170.49,939H191v75.76H178.31V955.15l-13.46,59.64H151.67l-13.42-59.64ZM257.14,939l27.16,75.76H269.4l-5.92-17.21H236.37l-5.6,17.21H216.24L242.66,939Zm-16.56,45.78h18.5l-9.34-28.11Zm62,5.32h0l13.32-1.45h0q1.2,7.49,4.88,11h0q3.68,3.51,9.92,3.51h0q6.62,0,10-3.13h0a9.7,9.7,0,0,0,3.35-7.31h0a7.42,7.42,0,0,0-1.41-4.57h0a11.16,11.16,0,0,0-4.93-3.28h0q-2.41-.93-11-3.31h0q-11-3-15.45-7.49h0A20.76,20.76,0,0,1,305,958.87h0A21.14,21.14,0,0,1,307.92,948h0a19,19,0,0,1,8.47-7.68h0a30.81,30.81,0,0,1,13.35-2.63h0q12.77,0,19.22,6.25h0q6.45,6.25,6.78,16.69h0l-13.69.67h0q-.88-5.84-3.77-8.4h0q-2.89-2.56-8.67-2.56h0q-6,0-9.35,2.74h0a5.74,5.74,0,0,0-2.17,4.7h0a6.09,6.09,0,0,0,2,4.6h0q2.59,2.43,12.58,5.06h0q10,2.63,14.78,5.45h0a20.05,20.05,0,0,1,7.5,7.7h0a24.6,24.6,0,0,1,2.71,12.07h0a24.24,24.24,0,0,1-3.24,12.2h0a20.08,20.08,0,0,1-9.16,8.45h0q-5.92,2.76-14.76,2.76h0q-12.86,0-19.75-6.64h0Q303.87,1002.85,302.53,990.13Zm100.19,24.65H389V939h13.69Z" transform="translate(128 -7.87)"/><path class="cls-3" d="M90,743.78V860.45H58.57V801.72H-38.36V770.25H58.57V744a64.1,64.1,0,0,0-4.8-23.8A76.31,76.31,0,0,0,39,696.54,74.38,74.38,0,0,0,14.67,679,78.15,78.15,0,0,0-1.22,673.8a89.71,89.71,0,0,0-18.88-1.89,76.78,76.78,0,0,0-20.73,2.63,66.94,66.94,0,0,0-16.29,7,69,69,0,0,0-13,10.15A81.94,81.94,0,0,0-80.4,704.13,101.4,101.4,0,0,0-93.11,730.6a86.75,86.75,0,0,0-2.75,10.9,33.5,33.5,0,0,0-.67,5.9V859H-128V746.93a62.53,62.53,0,0,1,1.26-11.49,121.85,121.85,0,0,1,3.62-14.36,134.16,134.16,0,0,1,16.6-34.5,110.24,110.24,0,0,1,14.2-17.23,97.9,97.9,0,0,1,19-14.83,97,97,0,0,1,24.23-10.34,110.82,110.82,0,0,1,29-3.78A124.23,124.23,0,0,1,5.19,643a106.66,106.66,0,0,1,22.34,7.24,105,105,0,0,1,34.69,25.09A107.43,107.43,0,0,1,83,708.5,96.79,96.79,0,0,1,90,743.78Zm1059.8-8.34a121.74,121.74,0,0,0-3.66-14.36,132.81,132.81,0,0,0-16.56-34.5,114.93,114.93,0,0,0-14.2-17.23,99.06,99.06,0,0,0-19-14.83,97.63,97.63,0,0,0-24.23-10.34,110.81,110.81,0,0,0-29-3.78,123.64,123.64,0,0,0-25.25,2.6,106.94,106.94,0,0,0-22.38,7.24,105.76,105.76,0,0,0-34.69,25.09A108,108,0,0,0,940.1,708.5,96,96,0,0,0,933,743.78V860.45h31.47V801.72h94.92V770.25H964.49V744a65.68,65.68,0,0,1,4.8-23.8,77.15,77.15,0,0,1,14.79-23.68A74.23,74.23,0,0,1,1008.39,679a78.56,78.56,0,0,1,15.93-5.15,89.72,89.72,0,0,1,18.88-1.89,76.31,76.31,0,0,1,20.69,2.63,65.62,65.62,0,0,1,16.28,7,68,68,0,0,1,13.06,10.15,84.42,84.42,0,0,1,10.27,12.47,102.6,102.6,0,0,1,12.7,26.47,93.81,93.81,0,0,1,2.75,10.9,33.37,33.37,0,0,1,.67,5.9V859h31.47V746.93A66.28,66.28,0,0,0,1149.84,735.44ZM398.11,676.91c-10.31-.08-20.65-.12-31-.08a43,43,0,0,0-19.71,5,55.06,55.06,0,0,0-15.38,12,59.25,59.25,0,0,0-10.7,16.8,54.24,54.24,0,0,0-4.25,20.73,50,50,0,0,0,4.33,20A58.94,58.94,0,0,0,332,767.5,55.28,55.28,0,0,0,346.93,779a41.64,41.64,0,0,0,19.24,5l37.45.12c14.44.08,28.87.16,43.27.16a16.56,16.56,0,0,1,6.73,1.45,19.66,19.66,0,0,1,6.21,4.49A23,23,0,0,1,466.12,806a17.56,17.56,0,0,1-1.81,7.47,27.42,27.42,0,0,1-5.43,7.32,27.76,27.76,0,0,1-6.8,4.92,12.29,12.29,0,0,1-2.52,1,1.15,1.15,0,0,1-.35.08H318.61v31.47h131a32.23,32.23,0,0,0,8.85-1.38,45.23,45.23,0,0,0,7.91-3.15,59.57,59.57,0,0,0,14.44-10.38,57.06,57.06,0,0,0,11.56-15.77,47.88,47.88,0,0,0,5.15-21.36,54.53,54.53,0,0,0-14.79-37.6,51.54,51.54,0,0,0-16-11.49A47.63,47.63,0,0,0,447,752.79c-14.4,0-28.79-.08-43.15-.16q-18.7-.06-37.33-.08a11,11,0,0,1-4.76-1.3,23.53,23.53,0,0,1-6.57-5.07,27.41,27.41,0,0,1-5-7.51,18.7,18.7,0,0,1-1.61-7.32,22.28,22.28,0,0,1,1.77-8.42,27.44,27.44,0,0,1,5.11-8,23.12,23.12,0,0,1,6.73-5.27,11.53,11.53,0,0,1,5.23-1.38c10.15,0,20.3,0,30.48.08q21.71.18,43.43.39l.35-31.47C427.17,677.15,412.62,677,398.11,676.91Zm306.46,95a90.92,90.92,0,1,1-26.63-64.31A91,91,0,0,1,704.56,771.94Zm-31.47,0A59.49,59.49,0,1,0,655.67,814,59.36,59.36,0,0,0,673.1,771.94Zm201.71,7.59a58.63,58.63,0,0,0,17.07-11.21,56.41,56.41,0,0,0,12-16,46.22,46.22,0,0,0,5-20.06,59.41,59.41,0,0,0-4.09-22,54.06,54.06,0,0,0-11.33-17.5A51,51,0,0,0,857,677.3H723.48V860.45H755V708.77h102a19.53,19.53,0,0,1,13.93,5.94,21.87,21.87,0,0,1,4.64,7.12,27.78,27.78,0,0,1,1.89,10.11,14,14,0,0,1-1.57,6.18,24.31,24.31,0,0,1-5.43,7.2,27.58,27.58,0,0,1-8.14,5.35,21.8,21.8,0,0,1-8.65,1.89H799.83V784h28l41.73,73.12,35,.37L862.2,783.26A52.84,52.84,0,0,0,874.81,779.54ZM261.06,674.87v92.47L111.12,679.9V860.21h31.47V734.69l118.48,69.09v55h31.47V674.87Z" transform="translate(128 -7.87)"/></g></svg>