<svg xmlns="http://www.w3.org/2000/svg" xmlns:xlink="http://www.w3.org/1999/xlink" width="120" height="96" viewBox="0 0 120 96">
  <defs>
    <clipPath id="clip-path">
      <rect id="Rectangle_57" data-name="Rectangle 57" width="120" height="96" fill="none"/>
    </clipPath>
  </defs>
  <g id="ansora_logo" clip-path="url(#clip-path)">
    <path id="Path_6" data-name="Path 6" d="M-24.578,239.151l13.276-4.7q.341-11.137,12.308-11.827,4.633,9.335,13.344,8.438c8.712-.9,11.754-8.85,9.335-14.659s-11.2-6.709-13.483-1.733,1.659,6.844,3.665,6.638q1.452-5.324,3.872-3.872c2.42,1.452,1.594,7.329-2.973,7.467S4.877,222,5.845,214.118,16.286,197.8,28.8,207.894q4.494-5.67,8.643-6.084,2.573,37.015-32.7,37.261T-24.578,239.151Z" transform="translate(35.055 -182.89)" fill="#fff"/>
    <path id="Path_7" data-name="Path 7" d="M575.479,198.15q8.02,27.311-9.818,37.891h45.563l-10.3-3.734q3.364-9.306-.9-13.969c-4.425-4.84-17.009-8.919-11.685,2.835q-3.734,1.452-6.223-.207c-2.489-1.657-5.737-10.37,5.045-13.2Q586.2,198.98,575.479,198.15Z" transform="translate(-500.629 -179.573)" fill="#fff"/>
    <path id="Path_8" data-name="Path 8" d="M595.281,18.409A17.758,17.758,0,0,0,591.344,7.9a14.37,14.37,0,0,0-4.221,10.369l-2.282,1.867V24.7l3.6-2.7q2.558,1.867,5.531-.069l3.665,2.835V20.274Zm-4.051-1.3a1.688,1.688,0,1,1,1.688-1.688A1.688,1.688,0,0,1,591.23,17.111Z" transform="translate(-518.011 -7.159)" fill="#fff"/>
    <path id="Path_9" data-name="Path 9" d="M-101.663,210.365a.872.872,0,0,1-.368-1.083c.207-.714,1.226-.886,2.075-.484a3.006,3.006,0,0,1,1.291,4.057c-1.037,1.844-3.938,1.89-5.324,1.06a5.241,5.241,0,0,1-1.777-6.085,5.856,5.856,0,0,1,6.638-3.665,8.664,8.664,0,0,1,5.255,4.817c.622,2,.188,2.467.945,3.066s3.02.188,4.54-1.291,3.434-4.61,1.083-7.56-5.577-3.088-6.292-2.3a1.287,1.287,0,0,0-.094,1.844c.3.208,1.36.945.438,1.5a3.121,3.121,0,0,1-3.918-.83c-1.359-1.475-1.037-5.3,3.088-6.476a5.117,5.117,0,0,0-3.273-3.987,6.043,6.043,0,0,0-7.79,3.066q-3.872-3.937-8.044-2.075a6.04,6.04,0,0,0-3.042,8.02c.9,1.567,3.78,2.65,4.978,1.475s1.244-2.512.023-2.881-1.2,1.219-1.268,1.544-.412,1.036-1.448.255a2.888,2.888,0,0,1-.115-4.5,4.317,4.317,0,0,1,6.568,1.912,5.327,5.327,0,0,1-4.194,7.491,7.013,7.013,0,0,1-7.652-4.076q-6.023,1.013-6.061,5.642a5.913,5.913,0,0,0,4.978,6.292q1.694.346,5.5-1.555,4.125,4.943,8.24,4.943c4.114,0,8.62-2.143,9.611-5.232,1.022-3.187-.651-4.677-1.909-5.468-1.163-.732-3.8-.4-4.058,1.439s.764,2.3,1.022,2.325.674.142.894-.389Q-100.9,210.641-101.663,210.365Z" transform="translate(125.646 -174.411)" fill="#fff"/>
    <path id="Path_10" data-name="Path 10" d="M826.414,197.2a.662.662,0,0,0,.281-.831c-.16-.548-.949-.679-1.6-.375a2.294,2.294,0,0,0-1,3.109c.8,1.413,3.047,1.448,4.117.813a4,4,0,0,0,1.373-4.663,4.546,4.546,0,0,0-5.132-2.813,6.669,6.669,0,0,0-4.063,3.692c-.481,1.536-.143,1.89-.73,2.349s-2.334.142-3.511-.989-2.655-3.533-.837-5.794,4.313-2.367,4.865-1.766a.98.98,0,0,1,.071,1.413c-.232.158-1.051.725-.339,1.148a2.43,2.43,0,0,0,3.029-.636c1.051-1.131.8-4.063-2.388-4.964a3.93,3.93,0,0,1,2.531-3.056,4.69,4.69,0,0,1,6.023,2.349q2.994-3.021,6.219-1.594a4.609,4.609,0,0,1,2.352,6.147c-.695,1.2-2.922,2.032-3.849,1.131s-.962-1.926-.018-2.208.926.938.98,1.183.321.8,1.125.194a2.2,2.2,0,0,0,.094-3.444,3.353,3.353,0,0,0-5.079,1.466,4.08,4.08,0,0,0,3.243,5.741,5.428,5.428,0,0,0,5.917-3.127q4.659.777,4.688,4.327a4.547,4.547,0,0,1-3.849,4.822q-1.312.265-4.25-1.192-3.187,3.789-6.375,3.789c-3.181,0-6.665-1.643-7.431-4.01a3.245,3.245,0,0,1,1.476-4.191c.9-.562,2.936-.3,3.138,1.1s-.592,1.759-.792,1.781-.521.11-.692-.3Q825.824,197.411,826.414,197.2Z" transform="translate(-726.102 -166.259)" fill="#fff"/>
    <path id="Path_11" data-name="Path 11" d="M855.444,946.1H854.16V939h2.7a4.251,4.251,0,0,1,1.481.188h0a1.509,1.509,0,0,1,.74.681h0a2.228,2.228,0,0,1,.281,1.12h0a2.031,2.031,0,0,1-.421,1.32h0a1.941,1.941,0,0,1-1.258.656h0a3.061,3.061,0,0,1,.687.6h0a8.151,8.151,0,0,1,.73,1.153h0l.776,1.386h-1.539l-.928-1.546h0a10.055,10.055,0,0,0-.677-1.044h0a.989.989,0,0,0-.386-.3h0a1.909,1.909,0,0,0-.646-.08h-.26Zm0-5.9v1.8h.951a4.419,4.419,0,0,0,1.154-.087h0a.706.706,0,0,0,.36-.3h0a1.008,1.008,0,0,0,.13-.533h0a.916.916,0,0,0-.172-.579h0a.763.763,0,0,0-.484-.281h0q-.157-.024-.937-.024h-1Zm9.922-1.2,2.546,7.1h-1.4l-.557-1.611h-2.54l-.525,1.614h-1.361L864.008,939Zm-1.553,4.292h1.735l-.876-2.635Zm8.6,2.813h-1.279v-2.989L868.8,939h1.5l1.5,2.813L873.27,939h1.479l-2.337,4.125Zm7.125-7.1,2.546,7.1h-1.4l-.555-1.613h-2.542l-.525,1.613h-1.357l2.472-7.1Zm-1.553,4.292h1.734l-.876-2.635Z" transform="translate(-762.083 -850.969)" fill="#fff"/>
    <path id="Path_12" data-name="Path 12" d="M476.92,942.6h0l1.249-.136h0a1.775,1.775,0,0,0,.457,1.031h0a1.292,1.292,0,0,0,.93.329h0a1.334,1.334,0,0,0,.938-.293h0a.91.91,0,0,0,.314-.685h0a.7.7,0,0,0-.13-.427h0a1.043,1.043,0,0,0-.462-.307h0q-.226-.088-1.031-.311h0a3.266,3.266,0,0,1-1.448-.7h0a1.947,1.947,0,0,1-.585-1.429h0a1.981,1.981,0,0,1,.274-1.02h0a1.781,1.781,0,0,1,.794-.72h0a2.89,2.89,0,0,1,1.251-.247h0a2.494,2.494,0,0,1,1.8.586h0a2.18,2.18,0,0,1,.636,1.565h0l-1.283.063h0a1.271,1.271,0,0,0-.353-.788h0a1.2,1.2,0,0,0-.813-.24h0a1.345,1.345,0,0,0-.876.257h0a.538.538,0,0,0-.2.441h0a.571.571,0,0,0,.187.431h0a3.165,3.165,0,0,0,1.179.474h0a5.747,5.747,0,0,1,1.386.511h0a1.875,1.875,0,0,1,.7.722h0a2.306,2.306,0,0,1,.254,1.132h0a2.272,2.272,0,0,1-.3,1.144h0a1.882,1.882,0,0,1-.859.792h0a3.27,3.27,0,0,1-1.384.259h0a2.562,2.562,0,0,1-1.852-.623h0A2.822,2.822,0,0,1,476.92,942.6Zm7.473-1.2h0a4.981,4.981,0,0,1,.291-1.821h0a3.384,3.384,0,0,1,.588-.974h0a2.489,2.489,0,0,1,.822-.639h0a3.172,3.172,0,0,1,1.371-.281h0a2.828,2.828,0,0,1,2.25.974h0a4,4,0,0,1,.844,2.709h0a3.991,3.991,0,0,1-.837,2.692h0a2.806,2.806,0,0,1-2.238.971h0a2.829,2.829,0,0,1-2.255-.967h0A3.938,3.938,0,0,1,484.393,941.4Zm1.323-.049h0a2.875,2.875,0,0,0,.5,1.829h0a1.554,1.554,0,0,0,1.267.623h0a1.542,1.542,0,0,0,1.259-.618h0a2.938,2.938,0,0,0,.492-1.853h0a2.9,2.9,0,0,0-.479-1.822h0a1.547,1.547,0,0,0-1.273-.6h0a1.557,1.557,0,0,0-1.28.608h0A2.908,2.908,0,0,0,485.716,941.35Zm11.867,3.556h-4.477v-7.044h1.283v5.845h3.187Zm1.751-3.507h0a4.982,4.982,0,0,1,.291-1.821h0a3.382,3.382,0,0,1,.592-.974h0a2.489,2.489,0,0,1,.822-.639h0a3.172,3.172,0,0,1,1.371-.281h0a2.829,2.829,0,0,1,2.25.974h0a4,4,0,0,1,.844,2.709h0a3.99,3.99,0,0,1-.837,2.692h0a2.806,2.806,0,0,1-2.238.971h0a2.829,2.829,0,0,1-2.255-.967h0A3.927,3.927,0,0,1,499.334,941.4Zm1.323-.049h0a2.875,2.875,0,0,0,.5,1.829h0a1.554,1.554,0,0,0,1.267.623h0a1.541,1.541,0,0,0,1.26-.618h0a2.937,2.937,0,0,0,.492-1.853h0a2.9,2.9,0,0,0-.479-1.822h0a1.547,1.547,0,0,0-1.273-.6h0a1.558,1.558,0,0,0-1.28.608h0a2.9,2.9,0,0,0-.488,1.834Z" transform="translate(-420.209 -849.771)" fill="#fff"/>
    <path id="Path_13" data-name="Path 13" d="M-105.786,937.8l2.545,7.1h-1.4l-.555-1.613h-2.541l-.525,1.613h-1.362l2.477-7.1Zm-1.552,4.292h1.735l-.877-2.635Zm7.406,2.689h-1.193v-7.1h1.251l2.6,4.744v-4.744h1.192v7.1h-1.288l-2.563-4.631Zm9.072.121h-1.282v-7.1h1.283Zm4.476,0h-1.191v-7.1h1.919l1.154,4.845,1.142-4.845h1.923v7.1h-1.19v-5.589l-1.262,5.591h-1.236l-1.258-5.591Zm11.148-7.1,2.546,7.1h-1.4l-.555-1.613h-2.542l-.525,1.613h-1.362l2.477-7.1Zm-1.552,4.292h1.734l-.876-2.635Zm5.813.5h0l1.249-.136h0a1.774,1.774,0,0,0,.457,1.031h0a1.291,1.291,0,0,0,.93.329h0a1.335,1.335,0,0,0,.938-.293h0a.91.91,0,0,0,.314-.685h0a.7.7,0,0,0-.132-.428h0a1.048,1.048,0,0,0-.462-.308h0q-.226-.087-1.031-.31h0a3.267,3.267,0,0,1-1.448-.7h0a1.946,1.946,0,0,1-.587-1.425h0a1.982,1.982,0,0,1,.274-1.019h0a1.781,1.781,0,0,1,.794-.72h0a2.891,2.891,0,0,1,1.252-.247h0a2.494,2.494,0,0,1,1.8.586h0a2.18,2.18,0,0,1,.636,1.565h0l-1.283.063h0a1.272,1.272,0,0,0-.353-.788h0a1.2,1.2,0,0,0-.813-.24h0a1.349,1.349,0,0,0-.877.257h0a.538.538,0,0,0-.2.441h0a.571.571,0,0,0,.188.431h0a3.165,3.165,0,0,0,1.179.474h0a5.746,5.746,0,0,1,1.386.511h0a1.88,1.88,0,0,1,.7.722h0a2.306,2.306,0,0,1,.254,1.132h0a2.272,2.272,0,0,1-.3,1.144h0a1.882,1.882,0,0,1-.859.792h0a3.27,3.27,0,0,1-1.384.259h0a2.562,2.562,0,0,1-1.852-.623h0a2.819,2.819,0,0,1-.771-1.809Zm9.393,2.311h-1.291v-7.1h1.283Z" transform="translate(111.343 -849.771)" fill="#fff"/>
    <path id="Path_14" data-name="Path 14" d="M-107.563,650.092v10.938h-2.947v-5.506H-119.6v-2.95h9.087v-2.461a6.009,6.009,0,0,0-.45-2.231,7.153,7.153,0,0,0-1.385-2.218,6.974,6.974,0,0,0-2.281-1.644,7.329,7.329,0,0,0-1.49-.488,8.407,8.407,0,0,0-1.77-.177,7.2,7.2,0,0,0-1.943.246,6.273,6.273,0,0,0-1.527.656,6.473,6.473,0,0,0-1.219.951,7.687,7.687,0,0,0-.964,1.166,9.505,9.505,0,0,0-1.192,2.482,8.131,8.131,0,0,0-.258,1.022,3.14,3.14,0,0,0-.063.553v10.463H-128V650.387a5.863,5.863,0,0,1,.118-1.077,11.426,11.426,0,0,1,.339-1.346,12.578,12.578,0,0,1,1.556-3.234,10.338,10.338,0,0,1,1.331-1.615,9.18,9.18,0,0,1,1.781-1.39,9.089,9.089,0,0,1,2.272-.969,10.386,10.386,0,0,1,2.719-.354,11.645,11.645,0,0,1,2.37.244,10,10,0,0,1,2.095.679,9.844,9.844,0,0,1,3.252,2.352,10.072,10.072,0,0,1,1.948,3.11A9.074,9.074,0,0,1-107.563,650.092Zm99.356-.782a11.415,11.415,0,0,0-.343-1.346,12.45,12.45,0,0,0-1.552-3.234,10.777,10.777,0,0,0-1.331-1.615,9.284,9.284,0,0,0-1.781-1.39,9.15,9.15,0,0,0-2.272-.969A10.386,10.386,0,0,0-18.2,640.4a11.6,11.6,0,0,0-2.37.244,10.036,10.036,0,0,0-2.1.678,9.915,9.915,0,0,0-3.252,2.352,10.126,10.126,0,0,0-1.943,3.11,9,9,0,0,0-.666,3.307v10.938h2.95v-5.506h8.9v-2.95h-8.9v-2.461a6.158,6.158,0,0,1,.45-2.231,7.233,7.233,0,0,1,1.387-2.22,6.961,6.961,0,0,1,2.279-1.643,7.362,7.362,0,0,1,1.493-.483,8.411,8.411,0,0,1,1.77-.177,7.149,7.149,0,0,1,1.94.247,6.155,6.155,0,0,1,1.526.656,6.377,6.377,0,0,1,1.224.952,7.912,7.912,0,0,1,.963,1.169,9.622,9.622,0,0,1,1.191,2.482,8.788,8.788,0,0,1,.258,1.022,3.127,3.127,0,0,1,.063.553v10.455h2.95V650.387A6.215,6.215,0,0,0-8.2,649.31Zm-70.471-5.487q-1.45-.011-2.906-.008a4.03,4.03,0,0,0-1.848.469,5.162,5.162,0,0,0-1.442,1.125,5.555,5.555,0,0,0-1,1.575,5.085,5.085,0,0,0-.4,1.943,4.687,4.687,0,0,0,.406,1.875,5.527,5.527,0,0,0,.994,1.513,5.185,5.185,0,0,0,1.4,1.078,3.906,3.906,0,0,0,1.8.469l3.511.011c1.354.008,2.707.015,4.057.015a1.551,1.551,0,0,1,.631.136,1.845,1.845,0,0,1,.582.421,2.156,2.156,0,0,1,.59,1.479,1.646,1.646,0,0,1-.17.7,2.569,2.569,0,0,1-.509.686,2.6,2.6,0,0,1-.638.461,1.14,1.14,0,0,1-.236.094.1.1,0,0,1-.033.008H-86.13v2.95h12.281a3.022,3.022,0,0,0,.83-.129,4.231,4.231,0,0,0,.742-.3,5.584,5.584,0,0,0,1.354-.973,5.35,5.35,0,0,0,1.084-1.478,4.489,4.489,0,0,0,.483-2,5.112,5.112,0,0,0-1.387-3.525,4.831,4.831,0,0,0-1.5-1.077,4.467,4.467,0,0,0-1.85-.407c-1.35,0-2.7-.008-4.045-.015q-1.753-.005-3.5-.008a1.029,1.029,0,0,1-.446-.122,2.206,2.206,0,0,1-.616-.475,2.569,2.569,0,0,1-.469-.7,1.753,1.753,0,0,1-.151-.686,2.09,2.09,0,0,1,.166-.789,2.574,2.574,0,0,1,.479-.75,2.167,2.167,0,0,1,.631-.494,1.082,1.082,0,0,1,.49-.129c.952,0,1.9,0,2.857.007l4.072.037.033-2.95C-75.953,643.845-77.317,643.831-78.677,643.823Zm28.731,8.906a8.523,8.523,0,0,1-6.86,8.358,8.524,8.524,0,0,1-9.539-5.1,8.524,8.524,0,0,1,3.14-10.348,8.524,8.524,0,0,1,10.762,1.06,8.531,8.531,0,0,1,2.5,6.032Zm-2.95,0a5.577,5.577,0,0,0-4.49-5.469,5.577,5.577,0,0,0-6.24,3.336,5.577,5.577,0,0,0,2.054,6.771,5.577,5.577,0,0,0,7.042-.693,5.565,5.565,0,0,0,1.634-3.943Zm18.91.711a5.5,5.5,0,0,0,1.6-1.051,5.288,5.288,0,0,0,1.125-1.5,4.333,4.333,0,0,0,.469-1.881,5.57,5.57,0,0,0-.383-2.063,5.068,5.068,0,0,0-1.062-1.641,4.782,4.782,0,0,0-3.418-1.447H-48.174v17.17h2.955v-14.22h9.562a1.832,1.832,0,0,1,1.306.557,2.052,2.052,0,0,1,.435.668,2.6,2.6,0,0,1,.177.948,1.312,1.312,0,0,1-.147.579,2.276,2.276,0,0,1-.509.675,2.583,2.583,0,0,1-.763.5,2.042,2.042,0,0,1-.811.177h-5.047v2.948h2.625l3.912,6.855,3.281.035-3.971-6.959a4.958,4.958,0,0,0,1.182-.349Zm-57.539-9.809V652.3l-14.057-8.2v16.9h2.95V649.239l11.108,6.477v5.156h2.95V643.631Z" transform="translate(128 -580.362)" fill="#fff"/>
  </g>
</svg>
