<svg xmlns="http://www.w3.org/2000/svg" xmlns:xlink="http://www.w3.org/1999/xlink" width="483" height="657" viewBox="0 0 483 657">
  <defs>
    <linearGradient id="linear-gradient" y1="0.5" x2="1" y2="0.5" gradientUnits="objectBoundingBox">
      <stop offset="0" stop-color="#7abcff"/>
      <stop offset="1" stop-color="#7abcff"/>
    </linearGradient>
    <clipPath id="clip-path">
      <rect id="Rectangle_143" data-name="Rectangle 143" width="483" height="657" transform="translate(883)" fill="url(#linear-gradient)"/>
    </clipPath>
  </defs>
  <g id="cloud_1" transform="translate(-883)" clip-path="url(#clip-path)">
    <path id="Union_1" data-name="Union 1" d="M229.713,321.93a54.159,54.159,0,0,1-51.874-69.577H54.115a54.115,54.115,0,1,1,0-108.23h57.242a54.118,54.118,0,0,1,32.766-97.187H233.5A54.126,54.126,0,0,1,287.141,0H683.618a54.115,54.115,0,1,1,0,108.23H594.243A54.125,54.125,0,0,1,540.6,155.167h-4.231A54.2,54.2,0,0,1,555.476,213.7H626.19a54.115,54.115,0,1,1,0,108.23Z" transform="translate(890.506 379.07)" fill="rgba(178,223,254,0.4)"/>
    <path id="Union_3" data-name="Union 3" d="M229.713,321.93a54.159,54.159,0,0,1-51.874-69.577H54.115a54.115,54.115,0,1,1,0-108.23h57.242a54.118,54.118,0,0,1,32.766-97.187H233.5A54.126,54.126,0,0,1,287.141,0H683.618a54.115,54.115,0,1,1,0,108.23H594.243A54.125,54.125,0,0,1,540.6,155.167h-4.231A54.2,54.2,0,0,1,555.476,213.7H626.19a54.115,54.115,0,1,1,0,108.23Z" transform="translate(1042.506 -113.93)" fill="rgba(178,223,254,0.4)"/>
  </g>
</svg>
