<svg id="Component_71_1" data-name="Component 71 – 1" xmlns="http://www.w3.org/2000/svg" width="272" height="200" viewBox="0 0 272 200">
  <rect id="Rectangle_264" data-name="Rectangle 264" width="272" height="200" rx="16" fill="#b2dffe"/>
  <path id="imgicon" d="M527.216,402.567a5.348,5.348,0,1,1,5.348,5.349A5.348,5.348,0,0,1,527.216,402.567Zm9.541,11.613a3.548,3.548,0,0,0-2.542,1.052l-9.431,9.439a.858.858,0,0,0,0,1.213l11.431,11.433h9.793a2.581,2.581,0,0,0,2.58-2.581V424.522l-9.29-9.291A3.548,3.548,0,0,0,536.757,414.18Zm-40.429-11.613a3.567,3.567,0,0,0-2.542,1.052l-9.2,9.181a1.748,1.748,0,0,0-.51,1.239v20.7a2.581,2.581,0,0,0,2.58,2.581h45.906l-33.694-33.7a3.548,3.548,0,0,0-2.542-1.052Zm60-11.484V455.6a7.742,7.742,0,0,1-7.741,7.742H484.071a7.742,7.742,0,0,1-7.741-7.742V391.082a7.742,7.742,0,0,1,7.741-7.742h64.511a7.742,7.742,0,0,1,7.748,7.742Zm-5.161,2.581A5.161,5.161,0,0,0,546,388.5h-59.35a5.161,5.161,0,0,0-5.161,5.162v41.073a5.161,5.161,0,0,0,5.161,5.161H546a5.161,5.161,0,0,0,5.161-5.161Z" transform="translate(-380.33 -323.342)" fill="rgba(255,255,255,0.5)"/>
</svg>
