<svg xmlns="http://www.w3.org/2000/svg" width="48.002" height="47.999" viewBox="0 0 48.002 47.999">
  <path id="ig" d="M6106,9782a24,24,0,1,1,16.97-7.029A23.843,23.843,0,0,1,6106,9782Zm-6.616-39.625a8.4,8.4,0,0,0-8.391,8.391v14.077a8.4,8.4,0,0,0,8.391,8.391h12.97a8.4,8.4,0,0,0,8.389-8.391v-14.077a8.4,8.4,0,0,0-8.389-8.391Zm12.97,27.807h-12.97a5.346,5.346,0,0,1-5.342-5.339v-14.077a5.347,5.347,0,0,1,5.342-5.34h12.97a5.346,5.346,0,0,1,5.339,5.34v14.077A5.345,5.345,0,0,1,6112.354,9770.182Zm-6.486-20.442a8.063,8.063,0,1,0,8.062,8.064A8.075,8.075,0,0,0,6105.869,9749.739Zm8.219-1.979a1.848,1.848,0,1,0,1.846,1.849A1.85,1.85,0,0,0,6114.088,9747.761Zm-8.219,15.057a5.013,5.013,0,1,1,5.013-5.014A5.019,5.019,0,0,1,6105.869,9762.817Z" transform="translate(-6081.999 -9734.001)" fill="#fff"/>
</svg>
