<svg xmlns="http://www.w3.org/2000/svg" width="24" height="22.667" viewBox="0 0 24 22.667">
  <path id="phoneicon" d="M738.276,908.6l-1.958-3.933a2.118,2.118,0,0,0-3.35-.575l-.893.853a6.257,6.257,0,0,0-1.5,6.873h0a23.99,23.99,0,0,0,13.464,13.314l1.488.588a6.477,6.477,0,0,0,6.963-1.438l1.03-1.034a2.056,2.056,0,0,0-.428-3.234l-3.272-1.914a2.141,2.141,0,0,0-2.571.311l-1.866,1.818a.866.866,0,0,1-.936.179l-.447-.185a14.9,14.9,0,0,1-7.563-6.938h0a.838.838,0,0,1,.147-.969l1.314-1.346A2.067,2.067,0,0,0,738.276,908.6Z" transform="translate(-730.125 -903.512)" fill="#00a3fc"/>
</svg>
