<svg xmlns="http://www.w3.org/2000/svg" width="15.484" height="15.999" viewBox="0 0 15.484 15.999">
  <path id="search_icon" data-name="search icon" d="M13723.447-3529a.992.992,0,0,1-.706-.293l-1.656-1.657a7.66,7.66,0,0,1-4.378,1.364,7.715,7.715,0,0,1-7.705-7.709,7.714,7.714,0,0,1,7.705-7.705,7.714,7.714,0,0,1,7.705,7.705,7.717,7.717,0,0,1-1.8,4.96l1.588,1.588a1.007,1.007,0,0,1,0,1.416l-.038.038A1,1,0,0,1,13723.447-3529Zm-6.74-13.947a5.658,5.658,0,0,0-5.652,5.652,5.658,5.658,0,0,0,5.652,5.652,5.659,5.659,0,0,0,5.652-5.652A5.659,5.659,0,0,0,13716.707-3542.945Z" transform="translate(-13709.002 3544.998)" fill="#081126"/>
</svg>
