<svg xmlns="http://www.w3.org/2000/svg" xmlns:xlink="http://www.w3.org/1999/xlink" width="1920" height="453" viewBox="0 0 1920 453">
  <defs>
    <linearGradient id="linear-gradient" y1="0.5" x2="1" y2="0.5" gradientUnits="objectBoundingBox">
      <stop offset="0" stop-color="#7abcff"/>
      <stop offset="1" stop-color="#7abcff"/>
    </linearGradient>
    <clipPath id="clip-path">
      <rect id="Rectangle_269" data-name="Rectangle 269" width="1920" height="453" transform="translate(0 335)" fill="url(#linear-gradient)"/>
    </clipPath>
  </defs>
  <g id="signupcloudbottom" transform="translate(0 -335)" clip-path="url(#clip-path)">
    <path id="Union_1" data-name="Union 1" d="M322.877,452.493A76.123,76.123,0,0,1,249.964,354.7H76.063a76.062,76.062,0,1,1,0-152.124h80.456a76.066,76.066,0,0,1,46.055-136.6H328.2A76.076,76.076,0,0,1,403.6,0H960.869a76.062,76.062,0,1,1,0,152.124H835.246a76.076,76.076,0,0,1-75.4,65.973H753.9a76.179,76.179,0,0,1,26.857,82.271H880.15a76.063,76.063,0,1,1,0,152.125Z" transform="translate(1369.731 335.099)" fill="rgba(178,223,254,0.4)"/>
  </g>
</svg>
