<svg xmlns="http://www.w3.org/2000/svg" width="48" height="47.999" viewBox="0 0 48 47.999">
  <path id="wa" d="M6234,9782a24,24,0,1,1,16.97-7.029A23.839,23.839,0,0,1,6234,9782Zm-7.495-11.4h0a15.427,15.427,0,1,0-8-13.522,15.246,15.246,0,0,0,1.689,6.992l-.96,7.755,7.272-1.225Zm7.429-.481a13.029,13.029,0,0,1-6.277-1.61l-.729-.4-.817.138-4.114.694.564-4.578.091-.727-.334-.65a12.91,12.91,0,0,1-1.426-5.907,13.042,13.042,0,1,1,13.043,13.041Zm-5.127-20.549a1.391,1.391,0,0,0-.971.394l-.594.577a4.254,4.254,0,0,0-1,4.64,16.143,16.143,0,0,0,8.96,8.99l.992.4a4.268,4.268,0,0,0,4.633-.97l.687-.7a1.4,1.4,0,0,0-.285-2.186l-2.177-1.291a1.409,1.409,0,0,0-1.711.209l-1.242,1.228a.563.563,0,0,1-.4.166.571.571,0,0,1-.221-.044l-.3-.125a9.969,9.969,0,0,1-5.033-4.687.569.569,0,0,1,.1-.652l.874-.911a1.417,1.417,0,0,0,.25-1.6l-1.3-2.656A1.391,1.391,0,0,0,6228.807,9749.574Z" transform="translate(-6210 -9734.001)" fill="#fff"/>
</svg>
